HIERARCHY
ROOT hip
{
  OFFSET 0 0 0
  CHANNELS 6 Xposition Yposition Zposition Zrotation Yrotation Xrotation
  JOINT abdomen
  {
    OFFSET 0 20.6881 -0.73152
    CHANNELS 3 Zrotation Xrotation Yrotation
    JOINT chest
    {
      OFFSET 0 11.7043 -0.48768
      CHANNELS 3 Zrotation Xrotation Yrotation
      JOINT neck
      {
        OFFSET 0 22.1894 -2.19456
        CHANNELS 3 Zrotation Xrotation Yrotation
        JOINT head
        {
          OFFSET -0.24384 7.07133 1.2192
          CHANNELS 3 Zrotation Xrotation Yrotation
          JOINT leftEye
          {
            OFFSET 4.14528 8.04674 8.04672
            CHANNELS 3 Zrotation Xrotation Yrotation
            End Site
            {
              OFFSET 1 0 0
            }
          }
          JOINT rightEye
          {
            OFFSET -3.6576 8.04674 8.04672
            CHANNELS 3 Zrotation Xrotation Yrotation
            End Site
            {
              OFFSET 1 0 0
            }
          }
        }
      }
      JOINT rCollar
      {
        OFFSET -2.68224 19.2634 -4.8768
        CHANNELS 3 Zrotation Xrotation Yrotation
        JOINT rShldr
        {
          OFFSET -8.77824 -1.95073 1.46304
          CHANNELS 3 Zrotation Xrotation Yrotation
          JOINT rForeArm
          {
            OFFSET -28.1742 -1.7115 0.48768
            CHANNELS 3 Zrotation Xrotation Yrotation
            JOINT rHand
            {
              OFFSET -22.5879 0.773209 7.07136
              CHANNELS 3 Zrotation Xrotation Yrotation
              JOINT rThumb1
              {
                OFFSET -1.2192 -0.487915 3.41376
                CHANNELS 3 Zrotation Xrotation Yrotation
                JOINT rThumb2
                {
                  OFFSET -3.37035 -0.52449 3.41376
                  CHANNELS 3 Zrotation Xrotation Yrotation
                  End Site
                  {
                    OFFSET -1.78271 -1.18214 1.43049
                  }
                }
              }
              JOINT rIndex1
              {
                OFFSET -7.75947 0.938293 5.60832
                CHANNELS 3 Zrotation Xrotation Yrotation
                JOINT rIndex2
                {
                  OFFSET -2.54057 -0.884171 1.56538
                  CHANNELS 3 Zrotation Xrotation Yrotation
                  End Site
                  {
                    OFFSET -1.62519 -0.234802 1.16502
                  }
                }
              }
              JOINT rMid1
              {
                OFFSET -8.24714 1.18213 3.41376
                CHANNELS 3 Zrotation Xrotation Yrotation
                JOINT rMid2
                {
                  OFFSET -3.10165 -0.590103 1.0647
                  CHANNELS 3 Zrotation Xrotation Yrotation
                  End Site
                  {
                    OFFSET -2.48547 -0.328903 0.83742
                  }
                }
              }
              JOINT rRing1
              {
                OFFSET -8.82822 0.546677 1.51678
                CHANNELS 3 Zrotation Xrotation Yrotation
                JOINT rRing2
                {
                  OFFSET -2.60934 -0.819778 -0.0198488
                  CHANNELS 3 Zrotation Xrotation Yrotation
                  End Site
                  {
                    OFFSET -2.33842 -0.294052 0.168128
                  }
                }
              }
              JOINT rPinky1
              {
                OFFSET -8.27202 -0.0477905 -0.4584
                CHANNELS 3 Zrotation Xrotation Yrotation
                JOINT rPinky2
                {
                  OFFSET -1.82734 -0.647385 -0.700984
                  CHANNELS 3 Zrotation Xrotation Yrotation
                  End Site
                  {
                    OFFSET -1.69225 -0.51767 -0.607171
                  }
                }
              }
            }
          }
        }
      }
      JOINT lCollar
      {
        OFFSET 2.68224 19.2634 -4.8768
        CHANNELS 3 Zrotation Xrotation Yrotation
        JOINT lShldr
        {
          OFFSET 8.77824 -1.95073 1.46304
          CHANNELS 3 Zrotation Xrotation Yrotation
          JOINT lForeArm
          {
            OFFSET 28.1742 -1.7115 0.48768
            CHANNELS 3 Zrotation Xrotation Yrotation
            JOINT lHand
            {
              OFFSET 22.5879 0.773209 7.07136
              CHANNELS 3 Zrotation Xrotation Yrotation
              JOINT lThumb1
              {
                OFFSET 1.2192 -0.487915 3.41376
                CHANNELS 3 Zrotation Xrotation Yrotation
                JOINT lThumb2
                {
                  OFFSET 3.37035 -0.52449 3.41376
                  CHANNELS 3 Zrotation Xrotation Yrotation
                  End Site
                  {
                    OFFSET 1.78271 -1.18214 1.43049
                  }
                }
              }
              JOINT lIndex1
              {
                OFFSET 7.75947 0.938293 5.60832
                CHANNELS 3 Zrotation Xrotation Yrotation
                JOINT lIndex2
                {
                  OFFSET 2.54057 -0.884171 1.56538
                  CHANNELS 3 Zrotation Xrotation Yrotation
                  End Site
                  {
                    OFFSET 1.62519 -0.234802 1.16502
                  }
                }
              }
              JOINT lMid1
              {
                OFFSET 8.24714 1.18213 3.41376
                CHANNELS 3 Zrotation Xrotation Yrotation
                JOINT lMid2
                {
                  OFFSET 3.10165 -0.590103 1.0647
                  CHANNELS 3 Zrotation Xrotation Yrotation
                  End Site
                  {
                    OFFSET 2.48547 -0.328903 0.83742
                  }
                }
              }
              JOINT lRing1
              {
                OFFSET 8.82822 0.546677 1.51678
                CHANNELS 3 Zrotation Xrotation Yrotation
                JOINT lRing2
                {
                  OFFSET 2.60934 -0.819778 -0.0198488
                  CHANNELS 3 Zrotation Xrotation Yrotation
                  End Site
                  {
                    OFFSET 2.33842 -0.294052 0.168128
                  }
                }
              }
              JOINT lPinky1
              {
                OFFSET 8.27202 -0.0477905 -0.4584
                CHANNELS 3 Zrotation Xrotation Yrotation
                JOINT lPinky2
                {
                  OFFSET 1.82734 -0.647385 -0.700984
                  CHANNELS 3 Zrotation Xrotation Yrotation
                  End Site
                  {
                    OFFSET 1.69225 -0.51767 -0.607171
                  }
                }
              }
            }
          }
        }
      }
    }
  }
  JOINT rButtock
  {
    OFFSET -8.77824 4.35084 1.2192
    CHANNELS 3 Zrotation Xrotation Yrotation
    JOINT rThigh
    {
      OFFSET 0 -1.70687 -2.19456
      CHANNELS 3 Zrotation Xrotation Yrotation
      JOINT rShin
      {
        OFFSET 0 -36.8199 0.73152
        CHANNELS 3 Zrotation Xrotation Yrotation
        JOINT rFoot
        {
          OFFSET 0.73152 -45.1104 -5.12064
          CHANNELS 3 Zrotation Xrotation Yrotation
          End Site
          {
            OFFSET -1.1221 -3.69964 12.103
          }
        }
      }
    }
  }
  JOINT lButtock
  {
    OFFSET 8.77824 4.35084 1.2192
    CHANNELS 3 Zrotation Xrotation Yrotation
    JOINT lThigh
    {
      OFFSET 0 -1.70687 -2.19456
      CHANNELS 3 Zrotation Xrotation Yrotation
      JOINT lShin
      {
        OFFSET 0 -36.8199 0.73152
        CHANNELS 3 Zrotation Xrotation Yrotation
        JOINT lFoot
        {
          OFFSET -0.73152 -45.1104 -5.12064
          CHANNELS 3 Zrotation Xrotation Yrotation
          End Site
          {
            OFFSET 1.1221 -3.69964 12.103
          }
        }
      }
    }
  }
}
MOTION
Frames:	4
Frame Time:	0.03333
0.06554233519288369 0.6734680713857759 1.026192380338457 10.043768882751465 -18.46748161315918 148.16796875 7.785222053527832 -47.29838562011719 61.03371047973633 177.7986297607422 55.592559814453125 -1.7466988563537598 11.512956619262695 51.6254997253418 -68.05989837646484 72.37956237792969 -39.27762222290039 74.06083679199219 26.079891204833984 -2.2367076873779297 116.3727035522461 -4.522132396697998 9.888171195983887 -22.856395721435547 39.49737548828125 12.3384428024292 -145.133544921875 -122.09260559082031 -44.495025634765625 157.64370727539062 -103.20630645751953 30.818058013916016 98.9856185913086 -96.50424194335938 -14.037779808044434 -169.6802978515625 -123.69496154785156 -35.946834564208984 -131.8702392578125 40.589378356933594 31.007278442382812 -104.00621795654297 148.76565551757812 -25.68297576904297 118.67813873291016 -179.54762268066406 52.83369827270508 173.2152099609375 -43.771385192871094 11.941927909851074 120.30469512939453 60.961570739746094 50.530914306640625 73.98214721679688 173.3491668701172 41.60405349731445 -154.1769561767578 -54.94940948486328 52.13120651245117 115.39906311035156 -134.63316345214844 4.698388576507568 -50.495994567871094 9.66602611541748 14.77825927734375 24.529329299926758 60.46250915527344 12.44216251373291 119.45721435546875 117.99317169189453 -55.342132568359375 -109.30995178222656 45.47972869873047 -30.160776138305664 -47.57563018798828 -153.2052459716797 -66.09190368652344 -168.0337371826172 51.97135543823242 -23.261077880859375 -17.526798248291016 -59.92355728149414 30.097023010253906 87.81565856933594 -100.05972290039062 16.205921173095703 -171.0242156982422 -19.450956344604492 -21.05908966064453 18.330028533935547 -18.826921463012695 23.638294219970703 24.228092193603516 10.441251754760742 51.90072250366211 21.4796199798584 -52.20036697387695 -31.437917709350586 158.8985137939453 69.14402770996094 -83.00658416748047 64.69436645507812 128.67369079589844 81.29766082763672 -165.93594360351562 -44.30861282348633 -14.013093948364258 -1.0046284198760986 45.39659881591797 -43.49404525756836 65.64554595947266 -75.16039276123047 4.755224227905273 36.85011672973633 88.02116394042969 -71.51010131835938 -6.163396835327148 60.17234420776367 -32.00492858886719 68.65007781982422 -90.87190246582031 23.401369094848633 -125.95706176757812 30.07628631591797 41.117008209228516 -31.032068252563477 -25.580102920532227 -23.953012466430664 21.892383575439453 114.81654357910156 43.87918472290039 8.557040214538574
-0.06024787136906599 1.2070999723465883 1.0229916896603655 19.932540893554688 -50.79315185546875 98.76882934570312 -1.6482784748077393 -4.3940300941467285 35.249794006347656 130.48046875 80.8318099975586 35.46335983276367 -6.604602336883545 47.4875373840332 -41.861202239990234 64.42288208007812 -47.93874740600586 56.191829681396484 23.7876033782959 0.02242436446249485 76.0450668334961 -4.225166320800781 11.155330657958984 -12.623678207397461 56.57020568847656 31.269453048706055 -118.89881896972656 -144.39198303222656 -37.739078521728516 171.55734252929688 -78.1500015258789 29.741703033447266 83.04302215576172 -117.65951538085938 -28.574886322021484 -157.1627960205078 -50.797584533691406 -50.00224685668945 -37.24188232421875 39.63608169555664 35.57963943481445 -77.89998626708984 107.60203552246094 -64.74922180175781 77.89925384521484 165.69029235839844 67.99358367919922 -167.78245544433594 -47.76564407348633 25.977880477905273 108.0381088256836 38.15789794921875 22.71366310119629 55.381866455078125 5.411704063415527 -20.599910736083984 11.661445617675781 -40.40409851074219 54.514957427978516 76.1370620727539 -109.39073181152344 -30.506616592407227 -17.427183151245117 9.798362731933594 6.73620080947876 16.849842071533203 67.01433563232422 -3.4156994819641113 87.50597381591797 87.1267318725586 -76.15708923339844 -133.1005401611328 43.2906379699707 -25.210710525512695 -57.003482818603516 -104.17284393310547 -81.02523803710938 -108.62499237060547 9.221244812011719 -16.112449645996094 -5.720799922943115 -47.77423858642578 33.06776428222656 61.074867248535156 -38.10816192626953 -22.35866355895996 -5.798408508300781 -15.499666213989258 -14.037121772766113 12.911670684814453 -14.231380462646484 20.38984489440918 17.06073760986328 3.022580862045288 38.83181381225586 17.940343856811523 -59.75358581542969 15.21361255645752 2.2260289192199707 -2.412900447845459 -17.13479995727539 -2.8864245414733887 5.432811737060547 57.13715362548828 -31.863693237304688 -38.36428451538086 -7.618541717529297 -0.799242377281189 30.487281799316406 -39.04969787597656 44.33707046508789 -64.54218292236328 4.453246593475342 19.658077239990234 19.641433715820312 -38.98466491699219 -48.874019622802734 32.029544830322266 -45.286319732666016 38.2508544921875 -101.19720458984375 0.875673234462738 -142.2815399169922 26.2643985748291 16.028451919555664 -14.09210205078125 -18.738040924072266 -5.531956672668457 22.307559967041016 44.67645263671875 20.715042114257812 56.7386474609375
0.18312820390117868 2.5530299428760324 1.788084080719218 -3.757056951522827 -19.32746124267578 20.81102752685547 -5.552783966064453 14.204926490783691 15.528206825256348 2.5469846725463867 -29.744359970092773 3.5979907512664795 -8.981563568115234 24.979381561279297 -18.021669387817383 17.084165573120117 -33.50442886352539 2.525116205215454 8.343103408813477 0.6222019791603088 14.691047668457031 -2.715571165084839 5.6487579345703125 -4.115227699279785 9.882351875305176 6.472817897796631 -2.901059865951538 32.96307373046875 43.60444259643555 20.70372200012207 -41.86756896972656 -1.0897856950759888 63.06985092163086 -14.153281211853027 -31.188669204711914 -13.388930320739746 -13.741012573242188 -8.371783256530762 0.9133710265159607 10.362215042114258 12.040057182312012 -12.395878791809082 11.676835060119629 -0.13336212933063507 -10.148028373718262 6.597385883331299 22.783782958984375 -2.2901840209960938 -13.644458770751953 10.74316120147705 19.3633975982666 2.272456407546997 -7.250243186950684 9.792694091796875 2.7865796089172363 -4.908655166625977 -6.946652412414551 0.1919887363910675 16.823619842529297 11.509415626525879 -12.159619331359863 -12.936594009399414 7.748242378234863 6.972940444946289 2.1469008922576904 7.614217758178711 13.222996711730957 -7.616384029388428 9.182833671569824 -66.29231262207031 43.399024963378906 -14.119864463806152 29.085058212280273 -23.606304168701172 -66.61235809326172 1.4354932308197021 -37.3481330871582 2.144451141357422 3.7082788944244385 -1.5324575901031494 -2.807642936706543 -13.547144889831543 16.88545799255371 12.64656925201416 -9.887354850769043 -5.366530418395996 -0.260220468044281 -11.308136940002441 -1.4443929195404053 3.8343312740325928 -1.1051350831985474 9.834125518798828 6.469582557678223 -1.8247716426849365 9.495424270629883 5.096526622772217 -5.7954583168029785 7.605220317840576 1.7304669618606567 -7.764091968536377 -3.0738139152526855 -2.3674094676971436 4.090544700622559 2.695495128631592 -13.886716842651367 -14.096025466918945 -2.6753883361816406 -0.20494084060192108 7.653624534606934 -15.586079597473145 5.772304534912109 -41.317535400390625 -27.336557388305664 -20.102317810058594 7.079658508300781 69.95855712890625 -20.978534698486328 6.468310356140137 -29.933652877807617 -2.0538952350616455 -14.976649284362793 -7.3136820793151855 -0.6120420694351196 25.024314880371094 -26.96097183227539 3.516411066055298 -10.478707313537598 38.125404357910156 13.734702110290527 9.467041015625 -12.302968978881836 25.78266716003418
0.5676405867770694 5.49017307608748 3.980160403909762 -4.866586208343506 -10.478604316711426 15.433384895324707 -5.668291091918945 13.393242835998535 10.538407325744629 1.3979824781417847 -17.096923828125 0.6253513693809509 -7.541138172149658 16.100969314575195 -9.470633506774902 7.304776191711426 -25.001523971557617 -4.2453460693359375 3.9711802005767822 -0.02352314442396164 4.354738235473633 -1.8656086921691895 3.740150213241577 -1.0684311389923096 4.25039005279541 2.4755961894989014 1.9870847463607788 36.40609359741211 40.32597351074219 25.31475830078125 -34.36026382446289 -15.112757682800293 63.948455810546875 -4.332424163818359 -15.825841903686523 -4.744470119476318 -7.855849742889404 -3.429521083831787 0.8729840517044067 2.4343221187591553 3.4896318912506104 -0.7916175127029419 5.024393081665039 1.5452898740768433 -3.368921995162964 6.607280254364014 11.421319007873535 -1.2917280197143555 -3.951329231262207 0.8405352830886841 4.972960948944092 -0.7482186555862427 -3.0401344299316406 2.062018394470215 1.671418309211731 -0.6678337454795837 -8.607245445251465 6.342634677886963 6.048423767089844 5.051361560821533 -0.8246282339096069 -4.240246772766113 2.4587161540985107 5.308947563171387 1.2366080284118652 3.869290828704834 1.6995906829833984 -2.9831936359405518 2.094841480255127 -58.376853942871094 42.23454666137695 -20.405881881713867 25.391218185424805 -24.01458740234375 -67.5023193359375 3.3519022464752197 -23.75278663635254 4.036214828491211 3.367736339569092 2.3367292881011963 -2.2800490856170654 -5.074708461761475 8.524444580078125 3.8215982913970947 -4.608019828796387 -1.081419825553894 -0.4537520408630371 -9.447237968444824 2.517699956893921 1.0428624153137207 2.1301686763763428 4.202087879180908 3.5215237140655518 -2.9205503463745117 0.35069945454597473 -0.5737631916999817 -2.5568490028381348 3.9415957927703857 1.035452127456665 -9.038444519042969 -1.2100305557250977 -2.660510778427124 4.3813796043396 -2.1605231761932373 -7.495125770568848 -4.521665096282959 -1.3298521041870117 -0.5260204672813416 1.7875943183898926 -6.282896041870117 -2.691314220428467 -32.330467224121094 -38.945037841796875 -21.591102600097656 -0.5921645760536194 69.19915771484375 -3.788264036178589 2.5763349533081055 -18.88277816772461 -7.9264020919799805 -4.7768144607543945 -1.219454288482666 0.6266666650772095 26.62523078918457 -38.99192428588867 9.907652854919434 -5.801143169403076 54.440311431884766 5.646620273590088 3.9565937519073486 -15.376548767089844 17.58966636657715
